# xmcd
#
# Track frame offsets:
# 150
# 10087
# 19913
# 29998
# 40939
# 54647
# 67645
# 75782
# 85206
# 99706
# 109406
# 119302
# 128260
# 137511
# 149677
# 166577
#
# Disc length: 2346 seconds
#
# Revision: 0
# Processed by: cddbd v1.5.2PL0 Copyright (c) Steve Scherf et al.
# Submitted via: Axialis_AX_CDPlayer 2.6
#
DISCID=c9092810
DTITLE=Roy Sludge - Too Drunk To Truck
DYEAR=1900
DGENRE=
TTITLE0=Too Drunk Too Truck
TTITLE1=I Got Hammered (Then I Got Nailed)
TTITLE2=Big Red
TTITLE3=Stampede
TTITLE4=On Tap, In The Can, Or In The Bottle
TTITLE5=Steuben Street Blues
TTITLE6=Back The Truck Up
TTITLE7=Honey Fingers
TTITLE8=Eight Would Be Great
TTITLE9=King Of The Open Road
TTITLE10=Hell Hath No Fury
TTITLE11=Gooseball Brown
TTITLE12=That's A Fine How Do You Do
TTITLE13=If You Can't Rock Me
TTITLE14=Mother Of Earth
TTITLE15=Drive
EXTD=
EXTT0=
EXTT1=
EXTT2=
EXTT3=
EXTT4=
EXTT5=
EXTT6=
EXTT7=
EXTT8=
EXTT9=
EXTT10=
EXTT11=
EXTT12=
EXTT13=
EXTT14=
EXTT15=
PLAYORDER=
